G04 EAGLE Gerber RS-274X export*
G75*
%MOMM*%
%FSLAX34Y34*%
%LPD*%
%INSoldermask Bottom*%
%IPPOS*%
%AMOC8*
5,1,8,0,0,1.08239X$1,22.5*%
G01*
%ADD10C,2.743200*%
%ADD11R,2.387600X2.387600*%
%ADD12C,3.048000*%
%ADD13C,2.743200*%
%ADD14R,2.743200X2.743200*%
%ADD15C,1.727200*%
%ADD16C,0.959600*%


D10*
X31750Y857250D03*
X31750Y31750D03*
X1621790Y31750D03*
X1621790Y857250D03*
D11*
X146050Y615950D03*
X463550Y615950D03*
X146050Y552450D03*
X463550Y552450D03*
X146050Y463550D03*
X463550Y463550D03*
X463550Y400050D03*
X146050Y400050D03*
D12*
X170180Y508000D03*
X439420Y508000D03*
D13*
X596900Y617982D02*
X622300Y617982D01*
X622300Y398018D02*
X596900Y398018D01*
D11*
X584600Y330200D03*
X634600Y330200D03*
D14*
X1430000Y170000D03*
X230000Y170000D03*
X280000Y170000D03*
X330000Y170000D03*
X380000Y170000D03*
X430000Y170000D03*
X480000Y170000D03*
X530000Y170000D03*
X580000Y170000D03*
X630000Y170000D03*
X680000Y170000D03*
X730000Y170000D03*
X780000Y170000D03*
X830000Y170000D03*
X880000Y170000D03*
X930000Y170000D03*
X980000Y170000D03*
X1030000Y170000D03*
X1080000Y170000D03*
X1130000Y170000D03*
X1180000Y170000D03*
X1230000Y170000D03*
X1280000Y170000D03*
X1330000Y170000D03*
X1380000Y170000D03*
D15*
X558800Y264160D02*
X558800Y279400D01*
X584200Y279400D02*
X584200Y264160D01*
X635000Y264160D02*
X635000Y279400D01*
X660400Y279400D02*
X660400Y264160D01*
D16*
X1104900Y662940D03*
X1104900Y716280D03*
X1104900Y599440D03*
X1099820Y462280D03*
X1262380Y449580D03*
X1305560Y637540D03*
X919734Y608838D03*
X761238Y549402D03*
X779526Y654558D03*
X751332Y619506D03*
X745998Y577596D03*
X1163574Y502158D03*
X954024Y515874D03*
X865632Y310134D03*
X742950Y410718D03*
X752856Y609600D03*
X713994Y696468D03*
X1024128Y377952D03*
X1033272Y739902D03*
X1146048Y729234D03*
X1084326Y697230D03*
X1013460Y685038D03*
X1084326Y739902D03*
X1053084Y676656D03*
X1219962Y704088D03*
X1267968Y704088D03*
X1090422Y713232D03*
X1373886Y710184D03*
X1078230Y428244D03*
X1346454Y525018D03*
X1205484Y576834D03*
X1301496Y529590D03*
X1192530Y561594D03*
X1157478Y544830D03*
X1078230Y326898D03*
X1346454Y423672D03*
X1219962Y501396D03*
X1219962Y551688D03*
X1267968Y547878D03*
X1115568Y460248D03*
X1201674Y432816D03*
X1304544Y438912D03*
X1322832Y457200D03*
X1370076Y473964D03*
X1208532Y342900D03*
X1363218Y417576D03*
X1315212Y396240D03*
X1395222Y349758D03*
X1037844Y560070D03*
X1069848Y631698D03*
X1219962Y640842D03*
X1085088Y525780D03*
X1219962Y627888D03*
X1267968Y627888D03*
X1053846Y504444D03*
X1256538Y393192D03*
X1213866Y435864D03*
X1343406Y722376D03*
X1307592Y370332D03*
X1157478Y468630D03*
X1192530Y483108D03*
X1255776Y487680D03*
X1188720Y519684D03*
X1353312Y644652D03*
X1219962Y475488D03*
X1267968Y475488D03*
X998982Y315468D03*
X1090422Y704088D03*
X1353312Y382524D03*
X1146810Y240030D03*
X1321308Y408432D03*
X1131570Y233934D03*
X1373886Y406908D03*
X1395222Y362712D03*
X1360170Y340614D03*
X1053846Y606552D03*
X986790Y504444D03*
X1005078Y250698D03*
X1041654Y480822D03*
X947928Y683514D03*
X1008888Y374142D03*
X1043940Y739902D03*
X1075182Y707898D03*
X1024128Y724662D03*
X1024128Y761238D03*
X1024128Y631698D03*
X1002792Y659892D03*
X1336548Y728472D03*
X1344930Y316230D03*
X1053846Y454152D03*
X1313688Y531114D03*
X1053846Y352044D03*
X1313688Y429768D03*
X1024128Y428244D03*
X1024128Y463296D03*
M02*
