G04 EAGLE Gerber RS-274X export*
G75*
%MOMM*%
%FSLAX34Y34*%
%LPD*%
%INSolderpaste Top*%
%IPPOS*%
%AMOC8*
5,1,8,0,0,1.08239X$1,22.5*%
G01*
%ADD10R,1.300000X1.000000*%
%ADD11R,4.000000X2.500000*%
%ADD12R,0.939800X2.489200*%
%ADD13R,6.781800X6.934200*%
%ADD14R,1.100000X1.000000*%
%ADD15R,1.803000X1.600000*%
%ADD16R,0.800000X0.800000*%
%ADD17R,2.500000X2.200000*%
%ADD18C,0.077500*%
%ADD19R,1.500000X0.650000*%
%ADD20R,1.600000X1.803000*%


D10*
X639600Y673100D03*
X639600Y698500D03*
X579600Y698500D03*
X579600Y673100D03*
D11*
X954400Y421640D03*
X874400Y421640D03*
X796920Y421640D03*
X716920Y421640D03*
D12*
X891500Y672465D03*
D13*
X914400Y736600D03*
D12*
X937300Y672465D03*
X734020Y672465D03*
D13*
X756920Y736600D03*
D12*
X779820Y672465D03*
D14*
X720480Y274320D03*
X737480Y274320D03*
X877960Y325120D03*
X894960Y325120D03*
X877960Y274320D03*
X894960Y274320D03*
D15*
X937260Y285500D03*
X937260Y313940D03*
X779780Y285500D03*
X779780Y313940D03*
D16*
X893960Y248920D03*
X878960Y248920D03*
D17*
X890900Y609600D03*
X937900Y609600D03*
X733420Y609600D03*
X780420Y609600D03*
X890900Y530860D03*
X937900Y530860D03*
X733420Y530860D03*
X780420Y530860D03*
D16*
X736480Y248920D03*
X721480Y248920D03*
D15*
X1117600Y674620D03*
X1117600Y646180D03*
D18*
X1011563Y664237D02*
X1005737Y664237D01*
X1005737Y666563D01*
X1011563Y666563D01*
X1011563Y664237D01*
X1011563Y664973D02*
X1005737Y664973D01*
X1005737Y665709D02*
X1011563Y665709D01*
X1011563Y666445D02*
X1005737Y666445D01*
X1005737Y659237D02*
X1011563Y659237D01*
X1005737Y659237D02*
X1005737Y661563D01*
X1011563Y661563D01*
X1011563Y659237D01*
X1011563Y659973D02*
X1005737Y659973D01*
X1005737Y660709D02*
X1011563Y660709D01*
X1011563Y661445D02*
X1005737Y661445D01*
X1005737Y654237D02*
X1011563Y654237D01*
X1005737Y654237D02*
X1005737Y656563D01*
X1011563Y656563D01*
X1011563Y654237D01*
X1011563Y654973D02*
X1005737Y654973D01*
X1005737Y655709D02*
X1011563Y655709D01*
X1011563Y656445D02*
X1005737Y656445D01*
X1020437Y654237D02*
X1026263Y654237D01*
X1020437Y654237D02*
X1020437Y656563D01*
X1026263Y656563D01*
X1026263Y654237D01*
X1026263Y654973D02*
X1020437Y654973D01*
X1020437Y655709D02*
X1026263Y655709D01*
X1026263Y656445D02*
X1020437Y656445D01*
X1020437Y659237D02*
X1026263Y659237D01*
X1020437Y659237D02*
X1020437Y661563D01*
X1026263Y661563D01*
X1026263Y659237D01*
X1026263Y659973D02*
X1020437Y659973D01*
X1020437Y660709D02*
X1026263Y660709D01*
X1026263Y661445D02*
X1020437Y661445D01*
X1020437Y664237D02*
X1026263Y664237D01*
X1020437Y664237D02*
X1020437Y666563D01*
X1026263Y666563D01*
X1026263Y664237D01*
X1026263Y664973D02*
X1020437Y664973D01*
X1020437Y665709D02*
X1026263Y665709D01*
X1026263Y666445D02*
X1020437Y666445D01*
X1056537Y664237D02*
X1062363Y664237D01*
X1056537Y664237D02*
X1056537Y666563D01*
X1062363Y666563D01*
X1062363Y664237D01*
X1062363Y664973D02*
X1056537Y664973D01*
X1056537Y665709D02*
X1062363Y665709D01*
X1062363Y666445D02*
X1056537Y666445D01*
X1056537Y659237D02*
X1062363Y659237D01*
X1056537Y659237D02*
X1056537Y661563D01*
X1062363Y661563D01*
X1062363Y659237D01*
X1062363Y659973D02*
X1056537Y659973D01*
X1056537Y660709D02*
X1062363Y660709D01*
X1062363Y661445D02*
X1056537Y661445D01*
X1056537Y654237D02*
X1062363Y654237D01*
X1056537Y654237D02*
X1056537Y656563D01*
X1062363Y656563D01*
X1062363Y654237D01*
X1062363Y654973D02*
X1056537Y654973D01*
X1056537Y655709D02*
X1062363Y655709D01*
X1062363Y656445D02*
X1056537Y656445D01*
X1071237Y654237D02*
X1077063Y654237D01*
X1071237Y654237D02*
X1071237Y656563D01*
X1077063Y656563D01*
X1077063Y654237D01*
X1077063Y654973D02*
X1071237Y654973D01*
X1071237Y655709D02*
X1077063Y655709D01*
X1077063Y656445D02*
X1071237Y656445D01*
X1071237Y659237D02*
X1077063Y659237D01*
X1071237Y659237D02*
X1071237Y661563D01*
X1077063Y661563D01*
X1077063Y659237D01*
X1077063Y659973D02*
X1071237Y659973D01*
X1071237Y660709D02*
X1077063Y660709D01*
X1077063Y661445D02*
X1071237Y661445D01*
X1071237Y664237D02*
X1077063Y664237D01*
X1071237Y664237D02*
X1071237Y666563D01*
X1077063Y666563D01*
X1077063Y664237D01*
X1077063Y664973D02*
X1071237Y664973D01*
X1071237Y665709D02*
X1077063Y665709D01*
X1077063Y666445D02*
X1071237Y666445D01*
D19*
X1166800Y678400D03*
X1166800Y665700D03*
X1166800Y653000D03*
X1166800Y640300D03*
X1220800Y678400D03*
X1220800Y665700D03*
X1220800Y653000D03*
X1220800Y640300D03*
D15*
X1270000Y674620D03*
X1270000Y646180D03*
D18*
X1310537Y664237D02*
X1316363Y664237D01*
X1310537Y664237D02*
X1310537Y666563D01*
X1316363Y666563D01*
X1316363Y664237D01*
X1316363Y664973D02*
X1310537Y664973D01*
X1310537Y665709D02*
X1316363Y665709D01*
X1316363Y666445D02*
X1310537Y666445D01*
X1310537Y659237D02*
X1316363Y659237D01*
X1310537Y659237D02*
X1310537Y661563D01*
X1316363Y661563D01*
X1316363Y659237D01*
X1316363Y659973D02*
X1310537Y659973D01*
X1310537Y660709D02*
X1316363Y660709D01*
X1316363Y661445D02*
X1310537Y661445D01*
X1310537Y654237D02*
X1316363Y654237D01*
X1310537Y654237D02*
X1310537Y656563D01*
X1316363Y656563D01*
X1316363Y654237D01*
X1316363Y654973D02*
X1310537Y654973D01*
X1310537Y655709D02*
X1316363Y655709D01*
X1316363Y656445D02*
X1310537Y656445D01*
X1325237Y654237D02*
X1331063Y654237D01*
X1325237Y654237D02*
X1325237Y656563D01*
X1331063Y656563D01*
X1331063Y654237D01*
X1331063Y654973D02*
X1325237Y654973D01*
X1325237Y655709D02*
X1331063Y655709D01*
X1331063Y656445D02*
X1325237Y656445D01*
X1325237Y659237D02*
X1331063Y659237D01*
X1325237Y659237D02*
X1325237Y661563D01*
X1331063Y661563D01*
X1331063Y659237D01*
X1331063Y659973D02*
X1325237Y659973D01*
X1325237Y660709D02*
X1331063Y660709D01*
X1331063Y661445D02*
X1325237Y661445D01*
X1325237Y664237D02*
X1331063Y664237D01*
X1325237Y664237D02*
X1325237Y666563D01*
X1331063Y666563D01*
X1331063Y664237D01*
X1331063Y664973D02*
X1325237Y664973D01*
X1325237Y665709D02*
X1331063Y665709D01*
X1331063Y666445D02*
X1325237Y666445D01*
X1361337Y664237D02*
X1367163Y664237D01*
X1361337Y664237D02*
X1361337Y666563D01*
X1367163Y666563D01*
X1367163Y664237D01*
X1367163Y664973D02*
X1361337Y664973D01*
X1361337Y665709D02*
X1367163Y665709D01*
X1367163Y666445D02*
X1361337Y666445D01*
X1361337Y659237D02*
X1367163Y659237D01*
X1361337Y659237D02*
X1361337Y661563D01*
X1367163Y661563D01*
X1367163Y659237D01*
X1367163Y659973D02*
X1361337Y659973D01*
X1361337Y660709D02*
X1367163Y660709D01*
X1367163Y661445D02*
X1361337Y661445D01*
X1361337Y654237D02*
X1367163Y654237D01*
X1361337Y654237D02*
X1361337Y656563D01*
X1367163Y656563D01*
X1367163Y654237D01*
X1367163Y654973D02*
X1361337Y654973D01*
X1361337Y655709D02*
X1367163Y655709D01*
X1367163Y656445D02*
X1361337Y656445D01*
X1376037Y654237D02*
X1381863Y654237D01*
X1376037Y654237D02*
X1376037Y656563D01*
X1381863Y656563D01*
X1381863Y654237D01*
X1381863Y654973D02*
X1376037Y654973D01*
X1376037Y655709D02*
X1381863Y655709D01*
X1381863Y656445D02*
X1376037Y656445D01*
X1376037Y659237D02*
X1381863Y659237D01*
X1376037Y659237D02*
X1376037Y661563D01*
X1381863Y661563D01*
X1381863Y659237D01*
X1381863Y659973D02*
X1376037Y659973D01*
X1376037Y660709D02*
X1381863Y660709D01*
X1381863Y661445D02*
X1376037Y661445D01*
X1376037Y664237D02*
X1381863Y664237D01*
X1376037Y664237D02*
X1376037Y666563D01*
X1381863Y666563D01*
X1381863Y664237D01*
X1381863Y664973D02*
X1376037Y664973D01*
X1376037Y665709D02*
X1381863Y665709D01*
X1381863Y666445D02*
X1376037Y666445D01*
D20*
X1179580Y279400D03*
X1208020Y279400D03*
D15*
X1117600Y522220D03*
X1117600Y493780D03*
D18*
X1011563Y511837D02*
X1005737Y511837D01*
X1005737Y514163D01*
X1011563Y514163D01*
X1011563Y511837D01*
X1011563Y512573D02*
X1005737Y512573D01*
X1005737Y513309D02*
X1011563Y513309D01*
X1011563Y514045D02*
X1005737Y514045D01*
X1005737Y506837D02*
X1011563Y506837D01*
X1005737Y506837D02*
X1005737Y509163D01*
X1011563Y509163D01*
X1011563Y506837D01*
X1011563Y507573D02*
X1005737Y507573D01*
X1005737Y508309D02*
X1011563Y508309D01*
X1011563Y509045D02*
X1005737Y509045D01*
X1005737Y501837D02*
X1011563Y501837D01*
X1005737Y501837D02*
X1005737Y504163D01*
X1011563Y504163D01*
X1011563Y501837D01*
X1011563Y502573D02*
X1005737Y502573D01*
X1005737Y503309D02*
X1011563Y503309D01*
X1011563Y504045D02*
X1005737Y504045D01*
X1020437Y501837D02*
X1026263Y501837D01*
X1020437Y501837D02*
X1020437Y504163D01*
X1026263Y504163D01*
X1026263Y501837D01*
X1026263Y502573D02*
X1020437Y502573D01*
X1020437Y503309D02*
X1026263Y503309D01*
X1026263Y504045D02*
X1020437Y504045D01*
X1020437Y506837D02*
X1026263Y506837D01*
X1020437Y506837D02*
X1020437Y509163D01*
X1026263Y509163D01*
X1026263Y506837D01*
X1026263Y507573D02*
X1020437Y507573D01*
X1020437Y508309D02*
X1026263Y508309D01*
X1026263Y509045D02*
X1020437Y509045D01*
X1020437Y511837D02*
X1026263Y511837D01*
X1020437Y511837D02*
X1020437Y514163D01*
X1026263Y514163D01*
X1026263Y511837D01*
X1026263Y512573D02*
X1020437Y512573D01*
X1020437Y513309D02*
X1026263Y513309D01*
X1026263Y514045D02*
X1020437Y514045D01*
X1056537Y511837D02*
X1062363Y511837D01*
X1056537Y511837D02*
X1056537Y514163D01*
X1062363Y514163D01*
X1062363Y511837D01*
X1062363Y512573D02*
X1056537Y512573D01*
X1056537Y513309D02*
X1062363Y513309D01*
X1062363Y514045D02*
X1056537Y514045D01*
X1056537Y506837D02*
X1062363Y506837D01*
X1056537Y506837D02*
X1056537Y509163D01*
X1062363Y509163D01*
X1062363Y506837D01*
X1062363Y507573D02*
X1056537Y507573D01*
X1056537Y508309D02*
X1062363Y508309D01*
X1062363Y509045D02*
X1056537Y509045D01*
X1056537Y501837D02*
X1062363Y501837D01*
X1056537Y501837D02*
X1056537Y504163D01*
X1062363Y504163D01*
X1062363Y501837D01*
X1062363Y502573D02*
X1056537Y502573D01*
X1056537Y503309D02*
X1062363Y503309D01*
X1062363Y504045D02*
X1056537Y504045D01*
X1071237Y501837D02*
X1077063Y501837D01*
X1071237Y501837D02*
X1071237Y504163D01*
X1077063Y504163D01*
X1077063Y501837D01*
X1077063Y502573D02*
X1071237Y502573D01*
X1071237Y503309D02*
X1077063Y503309D01*
X1077063Y504045D02*
X1071237Y504045D01*
X1071237Y506837D02*
X1077063Y506837D01*
X1071237Y506837D02*
X1071237Y509163D01*
X1077063Y509163D01*
X1077063Y506837D01*
X1077063Y507573D02*
X1071237Y507573D01*
X1071237Y508309D02*
X1077063Y508309D01*
X1077063Y509045D02*
X1071237Y509045D01*
X1071237Y511837D02*
X1077063Y511837D01*
X1071237Y511837D02*
X1071237Y514163D01*
X1077063Y514163D01*
X1077063Y511837D01*
X1077063Y512573D02*
X1071237Y512573D01*
X1071237Y513309D02*
X1077063Y513309D01*
X1077063Y514045D02*
X1071237Y514045D01*
D19*
X1166800Y526000D03*
X1166800Y513300D03*
X1166800Y500600D03*
X1166800Y487900D03*
X1220800Y526000D03*
X1220800Y513300D03*
X1220800Y500600D03*
X1220800Y487900D03*
D15*
X1270000Y522220D03*
X1270000Y493780D03*
D18*
X1310537Y511837D02*
X1316363Y511837D01*
X1310537Y511837D02*
X1310537Y514163D01*
X1316363Y514163D01*
X1316363Y511837D01*
X1316363Y512573D02*
X1310537Y512573D01*
X1310537Y513309D02*
X1316363Y513309D01*
X1316363Y514045D02*
X1310537Y514045D01*
X1310537Y506837D02*
X1316363Y506837D01*
X1310537Y506837D02*
X1310537Y509163D01*
X1316363Y509163D01*
X1316363Y506837D01*
X1316363Y507573D02*
X1310537Y507573D01*
X1310537Y508309D02*
X1316363Y508309D01*
X1316363Y509045D02*
X1310537Y509045D01*
X1310537Y501837D02*
X1316363Y501837D01*
X1310537Y501837D02*
X1310537Y504163D01*
X1316363Y504163D01*
X1316363Y501837D01*
X1316363Y502573D02*
X1310537Y502573D01*
X1310537Y503309D02*
X1316363Y503309D01*
X1316363Y504045D02*
X1310537Y504045D01*
X1325237Y501837D02*
X1331063Y501837D01*
X1325237Y501837D02*
X1325237Y504163D01*
X1331063Y504163D01*
X1331063Y501837D01*
X1331063Y502573D02*
X1325237Y502573D01*
X1325237Y503309D02*
X1331063Y503309D01*
X1331063Y504045D02*
X1325237Y504045D01*
X1325237Y506837D02*
X1331063Y506837D01*
X1325237Y506837D02*
X1325237Y509163D01*
X1331063Y509163D01*
X1331063Y506837D01*
X1331063Y507573D02*
X1325237Y507573D01*
X1325237Y508309D02*
X1331063Y508309D01*
X1331063Y509045D02*
X1325237Y509045D01*
X1325237Y511837D02*
X1331063Y511837D01*
X1325237Y511837D02*
X1325237Y514163D01*
X1331063Y514163D01*
X1331063Y511837D01*
X1331063Y512573D02*
X1325237Y512573D01*
X1325237Y513309D02*
X1331063Y513309D01*
X1331063Y514045D02*
X1325237Y514045D01*
X1361337Y511837D02*
X1367163Y511837D01*
X1361337Y511837D02*
X1361337Y514163D01*
X1367163Y514163D01*
X1367163Y511837D01*
X1367163Y512573D02*
X1361337Y512573D01*
X1361337Y513309D02*
X1367163Y513309D01*
X1367163Y514045D02*
X1361337Y514045D01*
X1361337Y506837D02*
X1367163Y506837D01*
X1361337Y506837D02*
X1361337Y509163D01*
X1367163Y509163D01*
X1367163Y506837D01*
X1367163Y507573D02*
X1361337Y507573D01*
X1361337Y508309D02*
X1367163Y508309D01*
X1367163Y509045D02*
X1361337Y509045D01*
X1361337Y501837D02*
X1367163Y501837D01*
X1361337Y501837D02*
X1361337Y504163D01*
X1367163Y504163D01*
X1367163Y501837D01*
X1367163Y502573D02*
X1361337Y502573D01*
X1361337Y503309D02*
X1367163Y503309D01*
X1367163Y504045D02*
X1361337Y504045D01*
X1376037Y501837D02*
X1381863Y501837D01*
X1376037Y501837D02*
X1376037Y504163D01*
X1381863Y504163D01*
X1381863Y501837D01*
X1381863Y502573D02*
X1376037Y502573D01*
X1376037Y503309D02*
X1381863Y503309D01*
X1381863Y504045D02*
X1376037Y504045D01*
X1376037Y506837D02*
X1381863Y506837D01*
X1376037Y506837D02*
X1376037Y509163D01*
X1381863Y509163D01*
X1381863Y506837D01*
X1381863Y507573D02*
X1376037Y507573D01*
X1376037Y508309D02*
X1381863Y508309D01*
X1381863Y509045D02*
X1376037Y509045D01*
X1376037Y511837D02*
X1381863Y511837D01*
X1376037Y511837D02*
X1376037Y514163D01*
X1381863Y514163D01*
X1381863Y511837D01*
X1381863Y512573D02*
X1376037Y512573D01*
X1376037Y513309D02*
X1381863Y513309D01*
X1381863Y514045D02*
X1376037Y514045D01*
D15*
X1117600Y369820D03*
X1117600Y341380D03*
D18*
X1011563Y359437D02*
X1005737Y359437D01*
X1005737Y361763D01*
X1011563Y361763D01*
X1011563Y359437D01*
X1011563Y360173D02*
X1005737Y360173D01*
X1005737Y360909D02*
X1011563Y360909D01*
X1011563Y361645D02*
X1005737Y361645D01*
X1005737Y354437D02*
X1011563Y354437D01*
X1005737Y354437D02*
X1005737Y356763D01*
X1011563Y356763D01*
X1011563Y354437D01*
X1011563Y355173D02*
X1005737Y355173D01*
X1005737Y355909D02*
X1011563Y355909D01*
X1011563Y356645D02*
X1005737Y356645D01*
X1005737Y349437D02*
X1011563Y349437D01*
X1005737Y349437D02*
X1005737Y351763D01*
X1011563Y351763D01*
X1011563Y349437D01*
X1011563Y350173D02*
X1005737Y350173D01*
X1005737Y350909D02*
X1011563Y350909D01*
X1011563Y351645D02*
X1005737Y351645D01*
X1020437Y349437D02*
X1026263Y349437D01*
X1020437Y349437D02*
X1020437Y351763D01*
X1026263Y351763D01*
X1026263Y349437D01*
X1026263Y350173D02*
X1020437Y350173D01*
X1020437Y350909D02*
X1026263Y350909D01*
X1026263Y351645D02*
X1020437Y351645D01*
X1020437Y354437D02*
X1026263Y354437D01*
X1020437Y354437D02*
X1020437Y356763D01*
X1026263Y356763D01*
X1026263Y354437D01*
X1026263Y355173D02*
X1020437Y355173D01*
X1020437Y355909D02*
X1026263Y355909D01*
X1026263Y356645D02*
X1020437Y356645D01*
X1020437Y359437D02*
X1026263Y359437D01*
X1020437Y359437D02*
X1020437Y361763D01*
X1026263Y361763D01*
X1026263Y359437D01*
X1026263Y360173D02*
X1020437Y360173D01*
X1020437Y360909D02*
X1026263Y360909D01*
X1026263Y361645D02*
X1020437Y361645D01*
X1056537Y359437D02*
X1062363Y359437D01*
X1056537Y359437D02*
X1056537Y361763D01*
X1062363Y361763D01*
X1062363Y359437D01*
X1062363Y360173D02*
X1056537Y360173D01*
X1056537Y360909D02*
X1062363Y360909D01*
X1062363Y361645D02*
X1056537Y361645D01*
X1056537Y354437D02*
X1062363Y354437D01*
X1056537Y354437D02*
X1056537Y356763D01*
X1062363Y356763D01*
X1062363Y354437D01*
X1062363Y355173D02*
X1056537Y355173D01*
X1056537Y355909D02*
X1062363Y355909D01*
X1062363Y356645D02*
X1056537Y356645D01*
X1056537Y349437D02*
X1062363Y349437D01*
X1056537Y349437D02*
X1056537Y351763D01*
X1062363Y351763D01*
X1062363Y349437D01*
X1062363Y350173D02*
X1056537Y350173D01*
X1056537Y350909D02*
X1062363Y350909D01*
X1062363Y351645D02*
X1056537Y351645D01*
X1071237Y349437D02*
X1077063Y349437D01*
X1071237Y349437D02*
X1071237Y351763D01*
X1077063Y351763D01*
X1077063Y349437D01*
X1077063Y350173D02*
X1071237Y350173D01*
X1071237Y350909D02*
X1077063Y350909D01*
X1077063Y351645D02*
X1071237Y351645D01*
X1071237Y354437D02*
X1077063Y354437D01*
X1071237Y354437D02*
X1071237Y356763D01*
X1077063Y356763D01*
X1077063Y354437D01*
X1077063Y355173D02*
X1071237Y355173D01*
X1071237Y355909D02*
X1077063Y355909D01*
X1077063Y356645D02*
X1071237Y356645D01*
X1071237Y359437D02*
X1077063Y359437D01*
X1071237Y359437D02*
X1071237Y361763D01*
X1077063Y361763D01*
X1077063Y359437D01*
X1077063Y360173D02*
X1071237Y360173D01*
X1071237Y360909D02*
X1077063Y360909D01*
X1077063Y361645D02*
X1071237Y361645D01*
D19*
X1166800Y373600D03*
X1166800Y360900D03*
X1166800Y348200D03*
X1166800Y335500D03*
X1220800Y373600D03*
X1220800Y360900D03*
X1220800Y348200D03*
X1220800Y335500D03*
D15*
X1270000Y369820D03*
X1270000Y341380D03*
D18*
X1310537Y359437D02*
X1316363Y359437D01*
X1310537Y359437D02*
X1310537Y361763D01*
X1316363Y361763D01*
X1316363Y359437D01*
X1316363Y360173D02*
X1310537Y360173D01*
X1310537Y360909D02*
X1316363Y360909D01*
X1316363Y361645D02*
X1310537Y361645D01*
X1310537Y354437D02*
X1316363Y354437D01*
X1310537Y354437D02*
X1310537Y356763D01*
X1316363Y356763D01*
X1316363Y354437D01*
X1316363Y355173D02*
X1310537Y355173D01*
X1310537Y355909D02*
X1316363Y355909D01*
X1316363Y356645D02*
X1310537Y356645D01*
X1310537Y349437D02*
X1316363Y349437D01*
X1310537Y349437D02*
X1310537Y351763D01*
X1316363Y351763D01*
X1316363Y349437D01*
X1316363Y350173D02*
X1310537Y350173D01*
X1310537Y350909D02*
X1316363Y350909D01*
X1316363Y351645D02*
X1310537Y351645D01*
X1325237Y349437D02*
X1331063Y349437D01*
X1325237Y349437D02*
X1325237Y351763D01*
X1331063Y351763D01*
X1331063Y349437D01*
X1331063Y350173D02*
X1325237Y350173D01*
X1325237Y350909D02*
X1331063Y350909D01*
X1331063Y351645D02*
X1325237Y351645D01*
X1325237Y354437D02*
X1331063Y354437D01*
X1325237Y354437D02*
X1325237Y356763D01*
X1331063Y356763D01*
X1331063Y354437D01*
X1331063Y355173D02*
X1325237Y355173D01*
X1325237Y355909D02*
X1331063Y355909D01*
X1331063Y356645D02*
X1325237Y356645D01*
X1325237Y359437D02*
X1331063Y359437D01*
X1325237Y359437D02*
X1325237Y361763D01*
X1331063Y361763D01*
X1331063Y359437D01*
X1331063Y360173D02*
X1325237Y360173D01*
X1325237Y360909D02*
X1331063Y360909D01*
X1331063Y361645D02*
X1325237Y361645D01*
X1361337Y359437D02*
X1367163Y359437D01*
X1361337Y359437D02*
X1361337Y361763D01*
X1367163Y361763D01*
X1367163Y359437D01*
X1367163Y360173D02*
X1361337Y360173D01*
X1361337Y360909D02*
X1367163Y360909D01*
X1367163Y361645D02*
X1361337Y361645D01*
X1361337Y354437D02*
X1367163Y354437D01*
X1361337Y354437D02*
X1361337Y356763D01*
X1367163Y356763D01*
X1367163Y354437D01*
X1367163Y355173D02*
X1361337Y355173D01*
X1361337Y355909D02*
X1367163Y355909D01*
X1367163Y356645D02*
X1361337Y356645D01*
X1361337Y349437D02*
X1367163Y349437D01*
X1361337Y349437D02*
X1361337Y351763D01*
X1367163Y351763D01*
X1367163Y349437D01*
X1367163Y350173D02*
X1361337Y350173D01*
X1361337Y350909D02*
X1367163Y350909D01*
X1367163Y351645D02*
X1361337Y351645D01*
X1376037Y349437D02*
X1381863Y349437D01*
X1376037Y349437D02*
X1376037Y351763D01*
X1381863Y351763D01*
X1381863Y349437D01*
X1381863Y350173D02*
X1376037Y350173D01*
X1376037Y350909D02*
X1381863Y350909D01*
X1381863Y351645D02*
X1376037Y351645D01*
X1376037Y354437D02*
X1381863Y354437D01*
X1376037Y354437D02*
X1376037Y356763D01*
X1381863Y356763D01*
X1381863Y354437D01*
X1381863Y355173D02*
X1376037Y355173D01*
X1376037Y355909D02*
X1381863Y355909D01*
X1381863Y356645D02*
X1376037Y356645D01*
X1376037Y359437D02*
X1381863Y359437D01*
X1376037Y359437D02*
X1376037Y361763D01*
X1381863Y361763D01*
X1381863Y359437D01*
X1381863Y360173D02*
X1376037Y360173D01*
X1376037Y360909D02*
X1381863Y360909D01*
X1381863Y361645D02*
X1376037Y361645D01*
D15*
X1117600Y598420D03*
X1117600Y569980D03*
D18*
X1011563Y588037D02*
X1005737Y588037D01*
X1005737Y590363D01*
X1011563Y590363D01*
X1011563Y588037D01*
X1011563Y588773D02*
X1005737Y588773D01*
X1005737Y589509D02*
X1011563Y589509D01*
X1011563Y590245D02*
X1005737Y590245D01*
X1005737Y583037D02*
X1011563Y583037D01*
X1005737Y583037D02*
X1005737Y585363D01*
X1011563Y585363D01*
X1011563Y583037D01*
X1011563Y583773D02*
X1005737Y583773D01*
X1005737Y584509D02*
X1011563Y584509D01*
X1011563Y585245D02*
X1005737Y585245D01*
X1005737Y578037D02*
X1011563Y578037D01*
X1005737Y578037D02*
X1005737Y580363D01*
X1011563Y580363D01*
X1011563Y578037D01*
X1011563Y578773D02*
X1005737Y578773D01*
X1005737Y579509D02*
X1011563Y579509D01*
X1011563Y580245D02*
X1005737Y580245D01*
X1020437Y578037D02*
X1026263Y578037D01*
X1020437Y578037D02*
X1020437Y580363D01*
X1026263Y580363D01*
X1026263Y578037D01*
X1026263Y578773D02*
X1020437Y578773D01*
X1020437Y579509D02*
X1026263Y579509D01*
X1026263Y580245D02*
X1020437Y580245D01*
X1020437Y583037D02*
X1026263Y583037D01*
X1020437Y583037D02*
X1020437Y585363D01*
X1026263Y585363D01*
X1026263Y583037D01*
X1026263Y583773D02*
X1020437Y583773D01*
X1020437Y584509D02*
X1026263Y584509D01*
X1026263Y585245D02*
X1020437Y585245D01*
X1020437Y588037D02*
X1026263Y588037D01*
X1020437Y588037D02*
X1020437Y590363D01*
X1026263Y590363D01*
X1026263Y588037D01*
X1026263Y588773D02*
X1020437Y588773D01*
X1020437Y589509D02*
X1026263Y589509D01*
X1026263Y590245D02*
X1020437Y590245D01*
X1056537Y588037D02*
X1062363Y588037D01*
X1056537Y588037D02*
X1056537Y590363D01*
X1062363Y590363D01*
X1062363Y588037D01*
X1062363Y588773D02*
X1056537Y588773D01*
X1056537Y589509D02*
X1062363Y589509D01*
X1062363Y590245D02*
X1056537Y590245D01*
X1056537Y583037D02*
X1062363Y583037D01*
X1056537Y583037D02*
X1056537Y585363D01*
X1062363Y585363D01*
X1062363Y583037D01*
X1062363Y583773D02*
X1056537Y583773D01*
X1056537Y584509D02*
X1062363Y584509D01*
X1062363Y585245D02*
X1056537Y585245D01*
X1056537Y578037D02*
X1062363Y578037D01*
X1056537Y578037D02*
X1056537Y580363D01*
X1062363Y580363D01*
X1062363Y578037D01*
X1062363Y578773D02*
X1056537Y578773D01*
X1056537Y579509D02*
X1062363Y579509D01*
X1062363Y580245D02*
X1056537Y580245D01*
X1071237Y578037D02*
X1077063Y578037D01*
X1071237Y578037D02*
X1071237Y580363D01*
X1077063Y580363D01*
X1077063Y578037D01*
X1077063Y578773D02*
X1071237Y578773D01*
X1071237Y579509D02*
X1077063Y579509D01*
X1077063Y580245D02*
X1071237Y580245D01*
X1071237Y583037D02*
X1077063Y583037D01*
X1071237Y583037D02*
X1071237Y585363D01*
X1077063Y585363D01*
X1077063Y583037D01*
X1077063Y583773D02*
X1071237Y583773D01*
X1071237Y584509D02*
X1077063Y584509D01*
X1077063Y585245D02*
X1071237Y585245D01*
X1071237Y588037D02*
X1077063Y588037D01*
X1071237Y588037D02*
X1071237Y590363D01*
X1077063Y590363D01*
X1077063Y588037D01*
X1077063Y588773D02*
X1071237Y588773D01*
X1071237Y589509D02*
X1077063Y589509D01*
X1077063Y590245D02*
X1071237Y590245D01*
D19*
X1166800Y602200D03*
X1166800Y589500D03*
X1166800Y576800D03*
X1166800Y564100D03*
X1220800Y602200D03*
X1220800Y589500D03*
X1220800Y576800D03*
X1220800Y564100D03*
D15*
X1270000Y598420D03*
X1270000Y569980D03*
D18*
X1310537Y588037D02*
X1316363Y588037D01*
X1310537Y588037D02*
X1310537Y590363D01*
X1316363Y590363D01*
X1316363Y588037D01*
X1316363Y588773D02*
X1310537Y588773D01*
X1310537Y589509D02*
X1316363Y589509D01*
X1316363Y590245D02*
X1310537Y590245D01*
X1310537Y583037D02*
X1316363Y583037D01*
X1310537Y583037D02*
X1310537Y585363D01*
X1316363Y585363D01*
X1316363Y583037D01*
X1316363Y583773D02*
X1310537Y583773D01*
X1310537Y584509D02*
X1316363Y584509D01*
X1316363Y585245D02*
X1310537Y585245D01*
X1310537Y578037D02*
X1316363Y578037D01*
X1310537Y578037D02*
X1310537Y580363D01*
X1316363Y580363D01*
X1316363Y578037D01*
X1316363Y578773D02*
X1310537Y578773D01*
X1310537Y579509D02*
X1316363Y579509D01*
X1316363Y580245D02*
X1310537Y580245D01*
X1325237Y578037D02*
X1331063Y578037D01*
X1325237Y578037D02*
X1325237Y580363D01*
X1331063Y580363D01*
X1331063Y578037D01*
X1331063Y578773D02*
X1325237Y578773D01*
X1325237Y579509D02*
X1331063Y579509D01*
X1331063Y580245D02*
X1325237Y580245D01*
X1325237Y583037D02*
X1331063Y583037D01*
X1325237Y583037D02*
X1325237Y585363D01*
X1331063Y585363D01*
X1331063Y583037D01*
X1331063Y583773D02*
X1325237Y583773D01*
X1325237Y584509D02*
X1331063Y584509D01*
X1331063Y585245D02*
X1325237Y585245D01*
X1325237Y588037D02*
X1331063Y588037D01*
X1325237Y588037D02*
X1325237Y590363D01*
X1331063Y590363D01*
X1331063Y588037D01*
X1331063Y588773D02*
X1325237Y588773D01*
X1325237Y589509D02*
X1331063Y589509D01*
X1331063Y590245D02*
X1325237Y590245D01*
X1361337Y588037D02*
X1367163Y588037D01*
X1361337Y588037D02*
X1361337Y590363D01*
X1367163Y590363D01*
X1367163Y588037D01*
X1367163Y588773D02*
X1361337Y588773D01*
X1361337Y589509D02*
X1367163Y589509D01*
X1367163Y590245D02*
X1361337Y590245D01*
X1361337Y583037D02*
X1367163Y583037D01*
X1361337Y583037D02*
X1361337Y585363D01*
X1367163Y585363D01*
X1367163Y583037D01*
X1367163Y583773D02*
X1361337Y583773D01*
X1361337Y584509D02*
X1367163Y584509D01*
X1367163Y585245D02*
X1361337Y585245D01*
X1361337Y578037D02*
X1367163Y578037D01*
X1361337Y578037D02*
X1361337Y580363D01*
X1367163Y580363D01*
X1367163Y578037D01*
X1367163Y578773D02*
X1361337Y578773D01*
X1361337Y579509D02*
X1367163Y579509D01*
X1367163Y580245D02*
X1361337Y580245D01*
X1376037Y578037D02*
X1381863Y578037D01*
X1376037Y578037D02*
X1376037Y580363D01*
X1381863Y580363D01*
X1381863Y578037D01*
X1381863Y578773D02*
X1376037Y578773D01*
X1376037Y579509D02*
X1381863Y579509D01*
X1381863Y580245D02*
X1376037Y580245D01*
X1376037Y583037D02*
X1381863Y583037D01*
X1376037Y583037D02*
X1376037Y585363D01*
X1381863Y585363D01*
X1381863Y583037D01*
X1381863Y583773D02*
X1376037Y583773D01*
X1376037Y584509D02*
X1381863Y584509D01*
X1381863Y585245D02*
X1376037Y585245D01*
X1376037Y588037D02*
X1381863Y588037D01*
X1376037Y588037D02*
X1376037Y590363D01*
X1381863Y590363D01*
X1381863Y588037D01*
X1381863Y588773D02*
X1376037Y588773D01*
X1376037Y589509D02*
X1381863Y589509D01*
X1381863Y590245D02*
X1376037Y590245D01*
D15*
X1117600Y446020D03*
X1117600Y417580D03*
D18*
X1011563Y435637D02*
X1005737Y435637D01*
X1005737Y437963D01*
X1011563Y437963D01*
X1011563Y435637D01*
X1011563Y436373D02*
X1005737Y436373D01*
X1005737Y437109D02*
X1011563Y437109D01*
X1011563Y437845D02*
X1005737Y437845D01*
X1005737Y430637D02*
X1011563Y430637D01*
X1005737Y430637D02*
X1005737Y432963D01*
X1011563Y432963D01*
X1011563Y430637D01*
X1011563Y431373D02*
X1005737Y431373D01*
X1005737Y432109D02*
X1011563Y432109D01*
X1011563Y432845D02*
X1005737Y432845D01*
X1005737Y425637D02*
X1011563Y425637D01*
X1005737Y425637D02*
X1005737Y427963D01*
X1011563Y427963D01*
X1011563Y425637D01*
X1011563Y426373D02*
X1005737Y426373D01*
X1005737Y427109D02*
X1011563Y427109D01*
X1011563Y427845D02*
X1005737Y427845D01*
X1020437Y425637D02*
X1026263Y425637D01*
X1020437Y425637D02*
X1020437Y427963D01*
X1026263Y427963D01*
X1026263Y425637D01*
X1026263Y426373D02*
X1020437Y426373D01*
X1020437Y427109D02*
X1026263Y427109D01*
X1026263Y427845D02*
X1020437Y427845D01*
X1020437Y430637D02*
X1026263Y430637D01*
X1020437Y430637D02*
X1020437Y432963D01*
X1026263Y432963D01*
X1026263Y430637D01*
X1026263Y431373D02*
X1020437Y431373D01*
X1020437Y432109D02*
X1026263Y432109D01*
X1026263Y432845D02*
X1020437Y432845D01*
X1020437Y435637D02*
X1026263Y435637D01*
X1020437Y435637D02*
X1020437Y437963D01*
X1026263Y437963D01*
X1026263Y435637D01*
X1026263Y436373D02*
X1020437Y436373D01*
X1020437Y437109D02*
X1026263Y437109D01*
X1026263Y437845D02*
X1020437Y437845D01*
X1056537Y435637D02*
X1062363Y435637D01*
X1056537Y435637D02*
X1056537Y437963D01*
X1062363Y437963D01*
X1062363Y435637D01*
X1062363Y436373D02*
X1056537Y436373D01*
X1056537Y437109D02*
X1062363Y437109D01*
X1062363Y437845D02*
X1056537Y437845D01*
X1056537Y430637D02*
X1062363Y430637D01*
X1056537Y430637D02*
X1056537Y432963D01*
X1062363Y432963D01*
X1062363Y430637D01*
X1062363Y431373D02*
X1056537Y431373D01*
X1056537Y432109D02*
X1062363Y432109D01*
X1062363Y432845D02*
X1056537Y432845D01*
X1056537Y425637D02*
X1062363Y425637D01*
X1056537Y425637D02*
X1056537Y427963D01*
X1062363Y427963D01*
X1062363Y425637D01*
X1062363Y426373D02*
X1056537Y426373D01*
X1056537Y427109D02*
X1062363Y427109D01*
X1062363Y427845D02*
X1056537Y427845D01*
X1071237Y425637D02*
X1077063Y425637D01*
X1071237Y425637D02*
X1071237Y427963D01*
X1077063Y427963D01*
X1077063Y425637D01*
X1077063Y426373D02*
X1071237Y426373D01*
X1071237Y427109D02*
X1077063Y427109D01*
X1077063Y427845D02*
X1071237Y427845D01*
X1071237Y430637D02*
X1077063Y430637D01*
X1071237Y430637D02*
X1071237Y432963D01*
X1077063Y432963D01*
X1077063Y430637D01*
X1077063Y431373D02*
X1071237Y431373D01*
X1071237Y432109D02*
X1077063Y432109D01*
X1077063Y432845D02*
X1071237Y432845D01*
X1071237Y435637D02*
X1077063Y435637D01*
X1071237Y435637D02*
X1071237Y437963D01*
X1077063Y437963D01*
X1077063Y435637D01*
X1077063Y436373D02*
X1071237Y436373D01*
X1071237Y437109D02*
X1077063Y437109D01*
X1077063Y437845D02*
X1071237Y437845D01*
D19*
X1166800Y449800D03*
X1166800Y437100D03*
X1166800Y424400D03*
X1166800Y411700D03*
X1220800Y449800D03*
X1220800Y437100D03*
X1220800Y424400D03*
X1220800Y411700D03*
D15*
X1270000Y446020D03*
X1270000Y417580D03*
D18*
X1310537Y435637D02*
X1316363Y435637D01*
X1310537Y435637D02*
X1310537Y437963D01*
X1316363Y437963D01*
X1316363Y435637D01*
X1316363Y436373D02*
X1310537Y436373D01*
X1310537Y437109D02*
X1316363Y437109D01*
X1316363Y437845D02*
X1310537Y437845D01*
X1310537Y430637D02*
X1316363Y430637D01*
X1310537Y430637D02*
X1310537Y432963D01*
X1316363Y432963D01*
X1316363Y430637D01*
X1316363Y431373D02*
X1310537Y431373D01*
X1310537Y432109D02*
X1316363Y432109D01*
X1316363Y432845D02*
X1310537Y432845D01*
X1310537Y425637D02*
X1316363Y425637D01*
X1310537Y425637D02*
X1310537Y427963D01*
X1316363Y427963D01*
X1316363Y425637D01*
X1316363Y426373D02*
X1310537Y426373D01*
X1310537Y427109D02*
X1316363Y427109D01*
X1316363Y427845D02*
X1310537Y427845D01*
X1325237Y425637D02*
X1331063Y425637D01*
X1325237Y425637D02*
X1325237Y427963D01*
X1331063Y427963D01*
X1331063Y425637D01*
X1331063Y426373D02*
X1325237Y426373D01*
X1325237Y427109D02*
X1331063Y427109D01*
X1331063Y427845D02*
X1325237Y427845D01*
X1325237Y430637D02*
X1331063Y430637D01*
X1325237Y430637D02*
X1325237Y432963D01*
X1331063Y432963D01*
X1331063Y430637D01*
X1331063Y431373D02*
X1325237Y431373D01*
X1325237Y432109D02*
X1331063Y432109D01*
X1331063Y432845D02*
X1325237Y432845D01*
X1325237Y435637D02*
X1331063Y435637D01*
X1325237Y435637D02*
X1325237Y437963D01*
X1331063Y437963D01*
X1331063Y435637D01*
X1331063Y436373D02*
X1325237Y436373D01*
X1325237Y437109D02*
X1331063Y437109D01*
X1331063Y437845D02*
X1325237Y437845D01*
X1361337Y435637D02*
X1367163Y435637D01*
X1361337Y435637D02*
X1361337Y437963D01*
X1367163Y437963D01*
X1367163Y435637D01*
X1367163Y436373D02*
X1361337Y436373D01*
X1361337Y437109D02*
X1367163Y437109D01*
X1367163Y437845D02*
X1361337Y437845D01*
X1361337Y430637D02*
X1367163Y430637D01*
X1361337Y430637D02*
X1361337Y432963D01*
X1367163Y432963D01*
X1367163Y430637D01*
X1367163Y431373D02*
X1361337Y431373D01*
X1361337Y432109D02*
X1367163Y432109D01*
X1367163Y432845D02*
X1361337Y432845D01*
X1361337Y425637D02*
X1367163Y425637D01*
X1361337Y425637D02*
X1361337Y427963D01*
X1367163Y427963D01*
X1367163Y425637D01*
X1367163Y426373D02*
X1361337Y426373D01*
X1361337Y427109D02*
X1367163Y427109D01*
X1367163Y427845D02*
X1361337Y427845D01*
X1376037Y425637D02*
X1381863Y425637D01*
X1376037Y425637D02*
X1376037Y427963D01*
X1381863Y427963D01*
X1381863Y425637D01*
X1381863Y426373D02*
X1376037Y426373D01*
X1376037Y427109D02*
X1381863Y427109D01*
X1381863Y427845D02*
X1376037Y427845D01*
X1376037Y430637D02*
X1381863Y430637D01*
X1376037Y430637D02*
X1376037Y432963D01*
X1381863Y432963D01*
X1381863Y430637D01*
X1381863Y431373D02*
X1376037Y431373D01*
X1376037Y432109D02*
X1381863Y432109D01*
X1381863Y432845D02*
X1376037Y432845D01*
X1376037Y435637D02*
X1381863Y435637D01*
X1376037Y435637D02*
X1376037Y437963D01*
X1381863Y437963D01*
X1381863Y435637D01*
X1381863Y436373D02*
X1376037Y436373D01*
X1376037Y437109D02*
X1381863Y437109D01*
X1381863Y437845D02*
X1376037Y437845D01*
D14*
X720480Y325120D03*
X737480Y325120D03*
M02*
