G04 EAGLE Gerber RS-274X export*
G75*
%MOMM*%
%FSLAX34Y34*%
%LPD*%
%INSoldermask Top*%
%IPPOS*%
%AMOC8*
5,1,8,0,0,1.08239X$1,22.5*%
G01*
%ADD10C,2.743200*%
%ADD11R,2.387600X2.387600*%
%ADD12C,3.048000*%
%ADD13R,1.503200X1.203200*%
%ADD14R,4.203200X2.703200*%
%ADD15R,1.143000X2.692400*%
%ADD16R,6.985000X7.137400*%
%ADD17R,1.303200X1.203200*%
%ADD18R,2.006200X1.803200*%
%ADD19R,1.003200X1.003200*%
%ADD20R,2.703200X2.403200*%
%ADD21C,2.743200*%
%ADD22C,0.282259*%
%ADD23R,1.703200X0.853200*%
%ADD24R,1.803200X2.006200*%
%ADD25R,2.743200X2.743200*%
%ADD26C,0.959600*%


D10*
X31750Y857250D03*
X31750Y31750D03*
X1621790Y31750D03*
X1621790Y857250D03*
D11*
X146050Y615950D03*
X463550Y615950D03*
X146050Y552450D03*
X463550Y552450D03*
X146050Y463550D03*
X463550Y463550D03*
X463550Y400050D03*
X146050Y400050D03*
D12*
X170180Y508000D03*
X439420Y508000D03*
D13*
X639600Y673100D03*
X639600Y698500D03*
X579600Y698500D03*
X579600Y673100D03*
D14*
X954400Y421640D03*
X874400Y421640D03*
X796920Y421640D03*
X716920Y421640D03*
D15*
X891500Y672465D03*
D16*
X914400Y736600D03*
D15*
X937300Y672465D03*
X734020Y672465D03*
D16*
X756920Y736600D03*
D15*
X779820Y672465D03*
D17*
X720480Y274320D03*
X737480Y274320D03*
X877960Y325120D03*
X894960Y325120D03*
X877960Y274320D03*
X894960Y274320D03*
D18*
X937260Y285500D03*
X937260Y313940D03*
X779780Y285500D03*
X779780Y313940D03*
D19*
X893960Y248920D03*
X878960Y248920D03*
D20*
X890900Y609600D03*
X937900Y609600D03*
X733420Y609600D03*
X780420Y609600D03*
X890900Y530860D03*
X937900Y530860D03*
X733420Y530860D03*
X780420Y530860D03*
D19*
X736480Y248920D03*
X721480Y248920D03*
D21*
X622300Y617982D02*
X596900Y617982D01*
X596900Y398018D02*
X622300Y398018D01*
D11*
X584600Y330200D03*
X634600Y330200D03*
D18*
X1117600Y674620D03*
X1117600Y646180D03*
D22*
X1011555Y664245D02*
X1005745Y664245D01*
X1005745Y666555D01*
X1011555Y666555D01*
X1011555Y664245D01*
X1011555Y659245D02*
X1005745Y659245D01*
X1005745Y661555D01*
X1011555Y661555D01*
X1011555Y659245D01*
X1011555Y654245D02*
X1005745Y654245D01*
X1005745Y656555D01*
X1011555Y656555D01*
X1011555Y654245D01*
X1020445Y654245D02*
X1026255Y654245D01*
X1020445Y654245D02*
X1020445Y656555D01*
X1026255Y656555D01*
X1026255Y654245D01*
X1026255Y659245D02*
X1020445Y659245D01*
X1020445Y661555D01*
X1026255Y661555D01*
X1026255Y659245D01*
X1026255Y664245D02*
X1020445Y664245D01*
X1020445Y666555D01*
X1026255Y666555D01*
X1026255Y664245D01*
X1056545Y664245D02*
X1062355Y664245D01*
X1056545Y664245D02*
X1056545Y666555D01*
X1062355Y666555D01*
X1062355Y664245D01*
X1062355Y659245D02*
X1056545Y659245D01*
X1056545Y661555D01*
X1062355Y661555D01*
X1062355Y659245D01*
X1062355Y654245D02*
X1056545Y654245D01*
X1056545Y656555D01*
X1062355Y656555D01*
X1062355Y654245D01*
X1071245Y654245D02*
X1077055Y654245D01*
X1071245Y654245D02*
X1071245Y656555D01*
X1077055Y656555D01*
X1077055Y654245D01*
X1077055Y659245D02*
X1071245Y659245D01*
X1071245Y661555D01*
X1077055Y661555D01*
X1077055Y659245D01*
X1077055Y664245D02*
X1071245Y664245D01*
X1071245Y666555D01*
X1077055Y666555D01*
X1077055Y664245D01*
D23*
X1166800Y678400D03*
X1166800Y665700D03*
X1166800Y653000D03*
X1166800Y640300D03*
X1220800Y678400D03*
X1220800Y665700D03*
X1220800Y653000D03*
X1220800Y640300D03*
D18*
X1270000Y674620D03*
X1270000Y646180D03*
D22*
X1310545Y664245D02*
X1316355Y664245D01*
X1310545Y664245D02*
X1310545Y666555D01*
X1316355Y666555D01*
X1316355Y664245D01*
X1316355Y659245D02*
X1310545Y659245D01*
X1310545Y661555D01*
X1316355Y661555D01*
X1316355Y659245D01*
X1316355Y654245D02*
X1310545Y654245D01*
X1310545Y656555D01*
X1316355Y656555D01*
X1316355Y654245D01*
X1325245Y654245D02*
X1331055Y654245D01*
X1325245Y654245D02*
X1325245Y656555D01*
X1331055Y656555D01*
X1331055Y654245D01*
X1331055Y659245D02*
X1325245Y659245D01*
X1325245Y661555D01*
X1331055Y661555D01*
X1331055Y659245D01*
X1331055Y664245D02*
X1325245Y664245D01*
X1325245Y666555D01*
X1331055Y666555D01*
X1331055Y664245D01*
X1361345Y664245D02*
X1367155Y664245D01*
X1361345Y664245D02*
X1361345Y666555D01*
X1367155Y666555D01*
X1367155Y664245D01*
X1367155Y659245D02*
X1361345Y659245D01*
X1361345Y661555D01*
X1367155Y661555D01*
X1367155Y659245D01*
X1367155Y654245D02*
X1361345Y654245D01*
X1361345Y656555D01*
X1367155Y656555D01*
X1367155Y654245D01*
X1376045Y654245D02*
X1381855Y654245D01*
X1376045Y654245D02*
X1376045Y656555D01*
X1381855Y656555D01*
X1381855Y654245D01*
X1381855Y659245D02*
X1376045Y659245D01*
X1376045Y661555D01*
X1381855Y661555D01*
X1381855Y659245D01*
X1381855Y664245D02*
X1376045Y664245D01*
X1376045Y666555D01*
X1381855Y666555D01*
X1381855Y664245D01*
D24*
X1179580Y279400D03*
X1208020Y279400D03*
D18*
X1117600Y522220D03*
X1117600Y493780D03*
D22*
X1011555Y511845D02*
X1005745Y511845D01*
X1005745Y514155D01*
X1011555Y514155D01*
X1011555Y511845D01*
X1011555Y506845D02*
X1005745Y506845D01*
X1005745Y509155D01*
X1011555Y509155D01*
X1011555Y506845D01*
X1011555Y501845D02*
X1005745Y501845D01*
X1005745Y504155D01*
X1011555Y504155D01*
X1011555Y501845D01*
X1020445Y501845D02*
X1026255Y501845D01*
X1020445Y501845D02*
X1020445Y504155D01*
X1026255Y504155D01*
X1026255Y501845D01*
X1026255Y506845D02*
X1020445Y506845D01*
X1020445Y509155D01*
X1026255Y509155D01*
X1026255Y506845D01*
X1026255Y511845D02*
X1020445Y511845D01*
X1020445Y514155D01*
X1026255Y514155D01*
X1026255Y511845D01*
X1056545Y511845D02*
X1062355Y511845D01*
X1056545Y511845D02*
X1056545Y514155D01*
X1062355Y514155D01*
X1062355Y511845D01*
X1062355Y506845D02*
X1056545Y506845D01*
X1056545Y509155D01*
X1062355Y509155D01*
X1062355Y506845D01*
X1062355Y501845D02*
X1056545Y501845D01*
X1056545Y504155D01*
X1062355Y504155D01*
X1062355Y501845D01*
X1071245Y501845D02*
X1077055Y501845D01*
X1071245Y501845D02*
X1071245Y504155D01*
X1077055Y504155D01*
X1077055Y501845D01*
X1077055Y506845D02*
X1071245Y506845D01*
X1071245Y509155D01*
X1077055Y509155D01*
X1077055Y506845D01*
X1077055Y511845D02*
X1071245Y511845D01*
X1071245Y514155D01*
X1077055Y514155D01*
X1077055Y511845D01*
D23*
X1166800Y526000D03*
X1166800Y513300D03*
X1166800Y500600D03*
X1166800Y487900D03*
X1220800Y526000D03*
X1220800Y513300D03*
X1220800Y500600D03*
X1220800Y487900D03*
D18*
X1270000Y522220D03*
X1270000Y493780D03*
D22*
X1310545Y511845D02*
X1316355Y511845D01*
X1310545Y511845D02*
X1310545Y514155D01*
X1316355Y514155D01*
X1316355Y511845D01*
X1316355Y506845D02*
X1310545Y506845D01*
X1310545Y509155D01*
X1316355Y509155D01*
X1316355Y506845D01*
X1316355Y501845D02*
X1310545Y501845D01*
X1310545Y504155D01*
X1316355Y504155D01*
X1316355Y501845D01*
X1325245Y501845D02*
X1331055Y501845D01*
X1325245Y501845D02*
X1325245Y504155D01*
X1331055Y504155D01*
X1331055Y501845D01*
X1331055Y506845D02*
X1325245Y506845D01*
X1325245Y509155D01*
X1331055Y509155D01*
X1331055Y506845D01*
X1331055Y511845D02*
X1325245Y511845D01*
X1325245Y514155D01*
X1331055Y514155D01*
X1331055Y511845D01*
X1361345Y511845D02*
X1367155Y511845D01*
X1361345Y511845D02*
X1361345Y514155D01*
X1367155Y514155D01*
X1367155Y511845D01*
X1367155Y506845D02*
X1361345Y506845D01*
X1361345Y509155D01*
X1367155Y509155D01*
X1367155Y506845D01*
X1367155Y501845D02*
X1361345Y501845D01*
X1361345Y504155D01*
X1367155Y504155D01*
X1367155Y501845D01*
X1376045Y501845D02*
X1381855Y501845D01*
X1376045Y501845D02*
X1376045Y504155D01*
X1381855Y504155D01*
X1381855Y501845D01*
X1381855Y506845D02*
X1376045Y506845D01*
X1376045Y509155D01*
X1381855Y509155D01*
X1381855Y506845D01*
X1381855Y511845D02*
X1376045Y511845D01*
X1376045Y514155D01*
X1381855Y514155D01*
X1381855Y511845D01*
D18*
X1117600Y369820D03*
X1117600Y341380D03*
D22*
X1011555Y359445D02*
X1005745Y359445D01*
X1005745Y361755D01*
X1011555Y361755D01*
X1011555Y359445D01*
X1011555Y354445D02*
X1005745Y354445D01*
X1005745Y356755D01*
X1011555Y356755D01*
X1011555Y354445D01*
X1011555Y349445D02*
X1005745Y349445D01*
X1005745Y351755D01*
X1011555Y351755D01*
X1011555Y349445D01*
X1020445Y349445D02*
X1026255Y349445D01*
X1020445Y349445D02*
X1020445Y351755D01*
X1026255Y351755D01*
X1026255Y349445D01*
X1026255Y354445D02*
X1020445Y354445D01*
X1020445Y356755D01*
X1026255Y356755D01*
X1026255Y354445D01*
X1026255Y359445D02*
X1020445Y359445D01*
X1020445Y361755D01*
X1026255Y361755D01*
X1026255Y359445D01*
X1056545Y359445D02*
X1062355Y359445D01*
X1056545Y359445D02*
X1056545Y361755D01*
X1062355Y361755D01*
X1062355Y359445D01*
X1062355Y354445D02*
X1056545Y354445D01*
X1056545Y356755D01*
X1062355Y356755D01*
X1062355Y354445D01*
X1062355Y349445D02*
X1056545Y349445D01*
X1056545Y351755D01*
X1062355Y351755D01*
X1062355Y349445D01*
X1071245Y349445D02*
X1077055Y349445D01*
X1071245Y349445D02*
X1071245Y351755D01*
X1077055Y351755D01*
X1077055Y349445D01*
X1077055Y354445D02*
X1071245Y354445D01*
X1071245Y356755D01*
X1077055Y356755D01*
X1077055Y354445D01*
X1077055Y359445D02*
X1071245Y359445D01*
X1071245Y361755D01*
X1077055Y361755D01*
X1077055Y359445D01*
D23*
X1166800Y373600D03*
X1166800Y360900D03*
X1166800Y348200D03*
X1166800Y335500D03*
X1220800Y373600D03*
X1220800Y360900D03*
X1220800Y348200D03*
X1220800Y335500D03*
D18*
X1270000Y369820D03*
X1270000Y341380D03*
D22*
X1310545Y359445D02*
X1316355Y359445D01*
X1310545Y359445D02*
X1310545Y361755D01*
X1316355Y361755D01*
X1316355Y359445D01*
X1316355Y354445D02*
X1310545Y354445D01*
X1310545Y356755D01*
X1316355Y356755D01*
X1316355Y354445D01*
X1316355Y349445D02*
X1310545Y349445D01*
X1310545Y351755D01*
X1316355Y351755D01*
X1316355Y349445D01*
X1325245Y349445D02*
X1331055Y349445D01*
X1325245Y349445D02*
X1325245Y351755D01*
X1331055Y351755D01*
X1331055Y349445D01*
X1331055Y354445D02*
X1325245Y354445D01*
X1325245Y356755D01*
X1331055Y356755D01*
X1331055Y354445D01*
X1331055Y359445D02*
X1325245Y359445D01*
X1325245Y361755D01*
X1331055Y361755D01*
X1331055Y359445D01*
X1361345Y359445D02*
X1367155Y359445D01*
X1361345Y359445D02*
X1361345Y361755D01*
X1367155Y361755D01*
X1367155Y359445D01*
X1367155Y354445D02*
X1361345Y354445D01*
X1361345Y356755D01*
X1367155Y356755D01*
X1367155Y354445D01*
X1367155Y349445D02*
X1361345Y349445D01*
X1361345Y351755D01*
X1367155Y351755D01*
X1367155Y349445D01*
X1376045Y349445D02*
X1381855Y349445D01*
X1376045Y349445D02*
X1376045Y351755D01*
X1381855Y351755D01*
X1381855Y349445D01*
X1381855Y354445D02*
X1376045Y354445D01*
X1376045Y356755D01*
X1381855Y356755D01*
X1381855Y354445D01*
X1381855Y359445D02*
X1376045Y359445D01*
X1376045Y361755D01*
X1381855Y361755D01*
X1381855Y359445D01*
D18*
X1117600Y598420D03*
X1117600Y569980D03*
D22*
X1011555Y588045D02*
X1005745Y588045D01*
X1005745Y590355D01*
X1011555Y590355D01*
X1011555Y588045D01*
X1011555Y583045D02*
X1005745Y583045D01*
X1005745Y585355D01*
X1011555Y585355D01*
X1011555Y583045D01*
X1011555Y578045D02*
X1005745Y578045D01*
X1005745Y580355D01*
X1011555Y580355D01*
X1011555Y578045D01*
X1020445Y578045D02*
X1026255Y578045D01*
X1020445Y578045D02*
X1020445Y580355D01*
X1026255Y580355D01*
X1026255Y578045D01*
X1026255Y583045D02*
X1020445Y583045D01*
X1020445Y585355D01*
X1026255Y585355D01*
X1026255Y583045D01*
X1026255Y588045D02*
X1020445Y588045D01*
X1020445Y590355D01*
X1026255Y590355D01*
X1026255Y588045D01*
X1056545Y588045D02*
X1062355Y588045D01*
X1056545Y588045D02*
X1056545Y590355D01*
X1062355Y590355D01*
X1062355Y588045D01*
X1062355Y583045D02*
X1056545Y583045D01*
X1056545Y585355D01*
X1062355Y585355D01*
X1062355Y583045D01*
X1062355Y578045D02*
X1056545Y578045D01*
X1056545Y580355D01*
X1062355Y580355D01*
X1062355Y578045D01*
X1071245Y578045D02*
X1077055Y578045D01*
X1071245Y578045D02*
X1071245Y580355D01*
X1077055Y580355D01*
X1077055Y578045D01*
X1077055Y583045D02*
X1071245Y583045D01*
X1071245Y585355D01*
X1077055Y585355D01*
X1077055Y583045D01*
X1077055Y588045D02*
X1071245Y588045D01*
X1071245Y590355D01*
X1077055Y590355D01*
X1077055Y588045D01*
D23*
X1166800Y602200D03*
X1166800Y589500D03*
X1166800Y576800D03*
X1166800Y564100D03*
X1220800Y602200D03*
X1220800Y589500D03*
X1220800Y576800D03*
X1220800Y564100D03*
D18*
X1270000Y598420D03*
X1270000Y569980D03*
D22*
X1310545Y588045D02*
X1316355Y588045D01*
X1310545Y588045D02*
X1310545Y590355D01*
X1316355Y590355D01*
X1316355Y588045D01*
X1316355Y583045D02*
X1310545Y583045D01*
X1310545Y585355D01*
X1316355Y585355D01*
X1316355Y583045D01*
X1316355Y578045D02*
X1310545Y578045D01*
X1310545Y580355D01*
X1316355Y580355D01*
X1316355Y578045D01*
X1325245Y578045D02*
X1331055Y578045D01*
X1325245Y578045D02*
X1325245Y580355D01*
X1331055Y580355D01*
X1331055Y578045D01*
X1331055Y583045D02*
X1325245Y583045D01*
X1325245Y585355D01*
X1331055Y585355D01*
X1331055Y583045D01*
X1331055Y588045D02*
X1325245Y588045D01*
X1325245Y590355D01*
X1331055Y590355D01*
X1331055Y588045D01*
X1361345Y588045D02*
X1367155Y588045D01*
X1361345Y588045D02*
X1361345Y590355D01*
X1367155Y590355D01*
X1367155Y588045D01*
X1367155Y583045D02*
X1361345Y583045D01*
X1361345Y585355D01*
X1367155Y585355D01*
X1367155Y583045D01*
X1367155Y578045D02*
X1361345Y578045D01*
X1361345Y580355D01*
X1367155Y580355D01*
X1367155Y578045D01*
X1376045Y578045D02*
X1381855Y578045D01*
X1376045Y578045D02*
X1376045Y580355D01*
X1381855Y580355D01*
X1381855Y578045D01*
X1381855Y583045D02*
X1376045Y583045D01*
X1376045Y585355D01*
X1381855Y585355D01*
X1381855Y583045D01*
X1381855Y588045D02*
X1376045Y588045D01*
X1376045Y590355D01*
X1381855Y590355D01*
X1381855Y588045D01*
D18*
X1117600Y446020D03*
X1117600Y417580D03*
D22*
X1011555Y435645D02*
X1005745Y435645D01*
X1005745Y437955D01*
X1011555Y437955D01*
X1011555Y435645D01*
X1011555Y430645D02*
X1005745Y430645D01*
X1005745Y432955D01*
X1011555Y432955D01*
X1011555Y430645D01*
X1011555Y425645D02*
X1005745Y425645D01*
X1005745Y427955D01*
X1011555Y427955D01*
X1011555Y425645D01*
X1020445Y425645D02*
X1026255Y425645D01*
X1020445Y425645D02*
X1020445Y427955D01*
X1026255Y427955D01*
X1026255Y425645D01*
X1026255Y430645D02*
X1020445Y430645D01*
X1020445Y432955D01*
X1026255Y432955D01*
X1026255Y430645D01*
X1026255Y435645D02*
X1020445Y435645D01*
X1020445Y437955D01*
X1026255Y437955D01*
X1026255Y435645D01*
X1056545Y435645D02*
X1062355Y435645D01*
X1056545Y435645D02*
X1056545Y437955D01*
X1062355Y437955D01*
X1062355Y435645D01*
X1062355Y430645D02*
X1056545Y430645D01*
X1056545Y432955D01*
X1062355Y432955D01*
X1062355Y430645D01*
X1062355Y425645D02*
X1056545Y425645D01*
X1056545Y427955D01*
X1062355Y427955D01*
X1062355Y425645D01*
X1071245Y425645D02*
X1077055Y425645D01*
X1071245Y425645D02*
X1071245Y427955D01*
X1077055Y427955D01*
X1077055Y425645D01*
X1077055Y430645D02*
X1071245Y430645D01*
X1071245Y432955D01*
X1077055Y432955D01*
X1077055Y430645D01*
X1077055Y435645D02*
X1071245Y435645D01*
X1071245Y437955D01*
X1077055Y437955D01*
X1077055Y435645D01*
D23*
X1166800Y449800D03*
X1166800Y437100D03*
X1166800Y424400D03*
X1166800Y411700D03*
X1220800Y449800D03*
X1220800Y437100D03*
X1220800Y424400D03*
X1220800Y411700D03*
D18*
X1270000Y446020D03*
X1270000Y417580D03*
D22*
X1310545Y435645D02*
X1316355Y435645D01*
X1310545Y435645D02*
X1310545Y437955D01*
X1316355Y437955D01*
X1316355Y435645D01*
X1316355Y430645D02*
X1310545Y430645D01*
X1310545Y432955D01*
X1316355Y432955D01*
X1316355Y430645D01*
X1316355Y425645D02*
X1310545Y425645D01*
X1310545Y427955D01*
X1316355Y427955D01*
X1316355Y425645D01*
X1325245Y425645D02*
X1331055Y425645D01*
X1325245Y425645D02*
X1325245Y427955D01*
X1331055Y427955D01*
X1331055Y425645D01*
X1331055Y430645D02*
X1325245Y430645D01*
X1325245Y432955D01*
X1331055Y432955D01*
X1331055Y430645D01*
X1331055Y435645D02*
X1325245Y435645D01*
X1325245Y437955D01*
X1331055Y437955D01*
X1331055Y435645D01*
X1361345Y435645D02*
X1367155Y435645D01*
X1361345Y435645D02*
X1361345Y437955D01*
X1367155Y437955D01*
X1367155Y435645D01*
X1367155Y430645D02*
X1361345Y430645D01*
X1361345Y432955D01*
X1367155Y432955D01*
X1367155Y430645D01*
X1367155Y425645D02*
X1361345Y425645D01*
X1361345Y427955D01*
X1367155Y427955D01*
X1367155Y425645D01*
X1376045Y425645D02*
X1381855Y425645D01*
X1376045Y425645D02*
X1376045Y427955D01*
X1381855Y427955D01*
X1381855Y425645D01*
X1381855Y430645D02*
X1376045Y430645D01*
X1376045Y432955D01*
X1381855Y432955D01*
X1381855Y430645D01*
X1381855Y435645D02*
X1376045Y435645D01*
X1376045Y437955D01*
X1381855Y437955D01*
X1381855Y435645D01*
D25*
X1430000Y170000D03*
X230000Y170000D03*
X280000Y170000D03*
X330000Y170000D03*
X380000Y170000D03*
X430000Y170000D03*
X480000Y170000D03*
X530000Y170000D03*
X580000Y170000D03*
X630000Y170000D03*
X680000Y170000D03*
X730000Y170000D03*
X780000Y170000D03*
X830000Y170000D03*
X880000Y170000D03*
X930000Y170000D03*
X980000Y170000D03*
X1030000Y170000D03*
X1080000Y170000D03*
X1130000Y170000D03*
X1180000Y170000D03*
X1230000Y170000D03*
X1280000Y170000D03*
X1330000Y170000D03*
X1380000Y170000D03*
D17*
X720480Y325120D03*
X737480Y325120D03*
D26*
X916940Y340360D03*
X1244600Y675640D03*
X1244600Y538480D03*
X1244600Y462280D03*
X709422Y326136D03*
X779526Y654558D03*
X751332Y619506D03*
X1153668Y487680D03*
X954024Y515874D03*
X755904Y609600D03*
X713994Y696468D03*
X743712Y395478D03*
X729996Y403098D03*
X1133094Y678180D03*
X1033272Y670560D03*
X1317498Y648462D03*
X1354836Y665226D03*
X1103376Y429006D03*
X1107186Y507492D03*
X1033272Y508254D03*
X1159764Y382524D03*
X1033272Y358902D03*
X1315974Y343662D03*
X1354836Y360426D03*
X1133094Y601980D03*
X1033272Y587502D03*
X1317498Y572262D03*
X1354836Y589026D03*
X1133094Y449580D03*
X1033272Y435102D03*
X1254252Y437388D03*
X1304544Y431292D03*
X1317498Y419862D03*
X1354836Y436626D03*
X1153668Y367284D03*
X1153668Y347472D03*
X1219200Y403098D03*
X1153668Y498348D03*
X1213866Y478536D03*
X1213866Y554736D03*
X1216152Y611124D03*
X1180338Y579120D03*
X1096518Y664464D03*
X1042416Y688848D03*
X692658Y320040D03*
X1061466Y523494D03*
X1371600Y518160D03*
X1077468Y340614D03*
X989838Y294894D03*
X1397508Y393192D03*
X1198626Y194310D03*
M02*
