M48
;GenerationSoftware,Autodesk,EAGLE,9.5.0*%
;CreationDate,2020-08-17T21:09:58Z*%
FMAT,2
ICI,OFF
METRIC,TZ,000.000
T9C0.350
T8C1.000
T7C1.016
T6C1.100
T5C1.143
T4C1.321
T3C2.540
T2C2.845
%
G90
M71
T2
X17018Y50800
X43942Y50800
T3
X3175Y85725
X3175Y3175
X162179Y85725
X162179Y3175
T4
X60960Y61798
X60960Y39802
T5
X14605Y61595
X46355Y61595
X14605Y55245
X46355Y55245
X14605Y46355
X46355Y46355
X46355Y40005
X14605Y40005
T6
X78000Y17000
X138000Y17000
X133000Y17000
X128000Y17000
X123000Y17000
X118000Y17000
X113000Y17000
X108000Y17000
X103000Y17000
X98000Y17000
X93000Y17000
X88000Y17000
X143000Y17000
X23000Y17000
X28000Y17000
X33000Y17000
X38000Y17000
X43000Y17000
X48000Y17000
X53000Y17000
X58000Y17000
X63000Y17000
X68000Y17000
X73000Y17000
X83000Y17000
T7
X66040Y27178
X55880Y27178
X58420Y27178
X63500Y27178
T8
X63460Y33020
X58460Y33020
T9
X102413Y72466
X137389Y40691
X107518Y70790
X104394Y73990
X100889Y37414
X94793Y68351
X104165Y48082
X100508Y25070
X98679Y50444
X105385Y60655
X136017Y34061
X139522Y36271
X102413Y76124
X102413Y63170
X100279Y65989
X133655Y72847
X134493Y31623
X105385Y45415
X131369Y53111
X105385Y35204
X131369Y42977
X102413Y42824
X102413Y46330
X113157Y23393
X137389Y71018
X114605Y72923
X108433Y69723
X101346Y68504
X108433Y73990
X105308Y67666
X121996Y70409
X126797Y70409
X109042Y71323
X103327Y73990
X107823Y42824
X134645Y52502
X120548Y57683
X130150Y52959
X119253Y56159
X115748Y54483
X107823Y32690
X134645Y42367
X75133Y61951
X110490Y71628
X110490Y59944
X109982Y46228
X126238Y44958
X130556Y63754
X91973Y60884
X76124Y54940
X77953Y65456
X121996Y50140
X74600Y57760
X116357Y50216
X95402Y51587
X86563Y31013
X74295Y41072
X75286Y60960
X71399Y69647
X102413Y37795
X118872Y51968
X105385Y50444
X125654Y39319
X121387Y43586
X134341Y72238
X130759Y37033
X115748Y46863
X119253Y48311
X125578Y48768
X126797Y62789
X135331Y64465
X121996Y47549
X126797Y47549
X99898Y31547
X109042Y70409
X135331Y38252
X114681Y24003
X132131Y40843
X136322Y41758
X121996Y55169
X126797Y54788
X111557Y46025
X120167Y43282
X130454Y43891
X132283Y45720
X137008Y47396
X120853Y34290
X110490Y66294
X131521Y39624
X139522Y34976
X103784Y56007
X106985Y63170
X121996Y64084
X108509Y52578
X121996Y62789
M30