M48
;GenerationSoftware,Autodesk,EAGLE,9.5.0*%
;CreationDate,2020-05-22T20:53:39Z*%
FMAT,2
ICI,OFF
METRIC,TZ,000.000
T8C0.350
T7C1.000
T6C1.100
T5C1.143
T4C1.321
T3C2.540
T2C2.845
%
G90
M71
T2
X17018Y50800
X43942Y50800
T3
X3175Y85725
X3175Y3175
X162179Y3175
X162179Y85725
T4
X60960Y39802
X60960Y61798
T5
X46355Y55245
X14605Y40005
X46355Y40005
X46355Y46355
X14605Y46355
X14605Y55245
X46355Y61595
X14605Y61595
T6
X138000Y17000
X143000Y17000
X23000Y17000
X28000Y17000
X33000Y17000
X43000Y17000
X133000Y17000
X128000Y17000
X123000Y17000
X118000Y17000
X113000Y17000
X108000Y17000
X103000Y17000
X98000Y17000
X93000Y17000
X88000Y17000
X83000Y17000
X78000Y17000
X73000Y17000
X68000Y17000
X63000Y17000
X58000Y17000
X53000Y17000
X48000Y17000
X38000Y17000
T7
X58460Y33020
X63460Y33020
T8
X107747Y34061
X119863Y19431
X139751Y39319
X98984Y29489
X73000Y40310
X135484Y36043
X131597Y34366
X103327Y35890
X115976Y38252
X103327Y50825
X110719Y50749
X110338Y42901
X135484Y66523
X131750Y64846
X103327Y67056
X113309Y67818
X113309Y60198
X74371Y39548
X71399Y69647
X75590Y60960
X95402Y51587
X115367Y48768
X75133Y61951
X77953Y65456
X70942Y32614
X124460Y46228
X124460Y53848
X124460Y67564
X115367Y34747
X137160Y51816
X106147Y52349
X69266Y32004
X104242Y68885
X109652Y66446
X118034Y57912
X121615Y61112
X121387Y55474
X121387Y47854
X115367Y49835
X121920Y40310
X91694Y34036
X115367Y36728
X135484Y43663
X131750Y41986
X130454Y43129
X125425Y43739
X103327Y43510
X113309Y44958
X135484Y58903
X131750Y57226
X103327Y58750
M30